<svg xmlns="http://www.w3.org/2000/svg" width="876" height="876" viewBox="0 0 876 876" version="1.1">
	<path d="M 715.500 150.465 C 669.857 159.222, 613.691 178.849, 577.500 198.689 C 531.282 224.027, 501.049 245.739, 473.905 273.088 L 464.311 282.755 463.728 300.628 C 463.408 310.457, 463.225 344.600, 463.323 376.500 L 463.500 434.500 500.750 434.762 L 538 435.024 538 401.489 L 538 367.953 555.250 368.226 L 572.500 368.500 572.275 417.500 C 572.152 444.450, 572.380 474.637, 572.782 484.582 C 573.487 502.043, 573.607 502.807, 576.257 506.813 C 583.547 517.829, 600.024 517.929, 606.446 506.997 C 608.456 503.576, 608.506 502.036, 608.777 435.703 L 609.054 367.907 615.277 368.537 C 635.920 370.628, 647.938 378.204, 655.315 393.777 L 658.500 400.500 658.798 444.585 C 659.115 491.622, 658.825 495.492, 654.030 508.228 C 651.368 515.296, 643.105 526.167, 636.474 531.324 C 622.229 542.403, 600.927 547.484, 583.799 543.887 C 572.057 541.422, 556.312 531.981, 549.305 523.207 C 540.595 512.297, 538 503.667, 538 485.606 L 538 473 501 473 L 464 473 464 593.500 C 464 659.775, 464.183 714, 464.406 714 C 464.630 714, 467.892 710.764, 471.656 706.810 C 481.916 696.031, 484.434 693.727, 497.500 683.167 C 528 658.515, 573.422 631.295, 610.154 615.656 C 645.733 600.508, 685.813 589.728, 723.793 585.092 C 742.988 582.748, 746.972 581.109, 750.752 574 L 753.144 569.500 752.559 397.500 C 752.237 302.900, 751.702 210.526, 751.371 192.225 C 750.792 160.318, 750.679 158.819, 748.610 155.749 C 747.423 153.988, 744.934 151.524, 743.078 150.274 C 738.694 147.319, 731.647 147.368, 715.500 150.465 M 162.374 150.929 C 161.204 151.432, 159.179 153.342, 157.874 155.172 L 155.500 158.500 155.240 359.781 C 154.950 585.107, 154.284 565.410, 162.316 569.057 C 164.617 570.101, 168.683 570.966, 171.351 570.978 C 179.907 571.017, 216.334 575.880, 231.151 578.961 C 243.962 581.625, 279.337 591.669, 294 596.806 C 301.479 599.426, 318.891 606.606, 334 613.299 C 367.314 628.059, 403.875 650.468, 431.750 673.213 L 439 679.128 439 482.297 L 439 285.466 428.250 274.880 C 401.782 248.818, 369.086 225.362, 330.500 204.758 C 283.582 179.704, 251.760 168.140, 195 155.519 C 172.507 150.518, 165.589 149.544, 162.374 150.929 M 120.418 213.947 C 117.188 215.288, 113.159 220.671, 112.313 224.779 C 111.891 226.826, 111.538 315.125, 111.529 421 C 111.512 602.668, 111.610 613.681, 113.266 616.720 C 114.231 618.492, 115.886 620.404, 116.945 620.970 C 118.057 621.566, 126.382 622.001, 136.684 622.002 C 178.187 622.007, 219.024 629.051, 265 644.133 C 307.515 658.079, 344.046 675.669, 379 699.021 C 390.291 706.565, 410.769 722.042, 418.341 728.755 C 428.407 737.678, 436.446 740.406, 443.893 737.426 C 449.416 735.216, 452 731.772, 452 726.619 C 452 722.801, 451.446 721.973, 444.231 715.004 C 412.248 684.112, 356.544 649.506, 303.898 627.823 C 274.551 615.736, 235.779 604.245, 206.500 598.958 C 194.016 596.704, 167.252 593.460, 152.765 592.446 C 141.570 591.662, 137.525 589.969, 134.827 584.938 C 133.077 581.675, 133 574, 133 403.132 C 133 219.133, 133 219.110, 129.097 215.594 C 126.940 213.651, 122.955 212.895, 120.418 213.947" stroke="none" fill="#ff0000" fill-rule="evenodd"/>
</svg>